# xmcd
#
# Track frame offsets: 
#        150
#        20100
#        46690
#        60785
#        85057
#        115134
#        132443
#        153898
#        187060
#        204729
#        220276
#        236314
#
# Disc length: 3414 seconds
#
# Revision: 0
# Processed by: cddbd v1.5.2PL0 Copyright (c) Steve Scherf et al.
# Submitted via: ExactAudioCopy v1.2
#
DISCID=9c0d540c
DTITLE=Bob Sparks - Not Scared
DYEAR=2018
DGENRE=Blues
TTITLE0=Not Scared
TTITLE1=Christmas Time Blues
TTITLE2=Come To The Well
TTITLE3=Thirsty Soul
TTITLE4=Not Ashamed
TTITLE5=Southside Jam
TTITLE6=Trust You Lord
TTITLE7=Falling Down
TTITLE8=Praise From Africa
TTITLE9=Denada
TTITLE10=Straight Path
TTITLE11=Change Of The Tide
EXTD=
EXTT0=
EXTT1=
EXTT2=
EXTT3=
EXTT4=
EXTT5=
EXTT6=
EXTT7=
EXTT8=
EXTT9=
EXTT10=
EXTT11=
PLAYORDER=
